<?xml version="1.0" standalone="no"?>
<!DOCTYPE svg PUBLIC "-//W3C//DTD SVG 20010904//EN"
 "http://www.w3.org/TR/2001/REC-SVG-20010904/DTD/svg10.dtd">
<svg version="1.0" xmlns="http://www.w3.org/2000/svg"
 width="3000.000000pt" height="2000.000000pt" viewBox="0 0 3000.000000 2000.000000"
 preserveAspectRatio="xMidYMid meet">

<g transform="translate(0.000000,2000.000000) scale(0.100000,-0.100000)"
fill="#000000" stroke="none">
<path d="M3820 17677 l0 -1152 -57 -14 c-32 -7 -70 -19 -85 -27 -76 -39 -144
-129 -183 -241 -28 -79 -82 -147 -155 -194 -65 -42 -64 -64 5 -99 28 -14 52
-26 53 -27 2 -1 -11 -31 -29 -68 -41 -82 -35 -100 34 -99 40 0 45 -2 36 -17
-5 -10 -14 -30 -19 -44 l-10 -27 67 4 68 3 12 -80 c39 -252 46 -291 54 -307 7
-13 22 -16 73 -15 71 2 94 -11 116 -64 10 -22 19 -29 40 -29 35 0 52 20 95
112 78 171 125 419 125 668 l0 169 53 39 c68 52 83 59 179 88 158 47 262 42
352 -18 25 -16 77 -69 116 -118 161 -202 303 -295 485 -318 l60 -7 7 -50 c4
-28 11 -138 15 -245 l8 -194 39 89 c90 211 129 286 146 279 42 -18 69 -16 94
9 28 28 35 84 15 104 -8 8 -1 10 28 6 45 -6 96 15 113 46 14 28 12 73 -5 98
-14 20 -13 21 29 25 58 7 130 42 146 72 16 31 6 72 -23 91 -14 8 -68 19 -132
24 -101 9 -189 31 -244 61 -21 11 -20 13 26 43 59 40 93 102 93 168 0 26 -3
54 -6 63 -10 26 -48 18 -80 -15 -41 -44 -76 -59 -132 -59 -77 0 -111 17 -204
106 -162 154 -249 210 -378 247 -242 70 -489 57 -629 -32 -88 -57 -181 -181
-181 -243 0 -22 -5 -22 -41 -1 l-29 17 0 1103 0 1103 3975 0 3975 0 0 -4410 0
-4410 -685 0 c-377 0 -685 -2 -685 -5 0 -3 14 -32 30 -65 l30 -60 740 0 740 0
0 4535 0 4535 -4140 0 -4140 0 0 -1153z"/>
<path d="M17170 14265 l0 -4535 1116 0 1115 0 80 57 c43 32 79 61 79 65 0 5
-499 8 -1110 8 l-1110 0 0 4410 0 4410 3975 0 3975 0 0 -795 0 -795 -27 -6
c-158 -35 -264 -93 -374 -204 -58 -58 -86 -97 -118 -161 -60 -123 -73 -182
-76 -349 -5 -215 -41 -347 -167 -614 -101 -216 -135 -300 -158 -400 -42 -184
-35 -284 30 -405 96 -180 121 -239 127 -292 5 -54 5 -55 -58 -147 -188 -274
-239 -406 -239 -620 0 -103 22 -150 99 -206 96 -70 308 -161 461 -196 30 -7
64 -20 74 -29 12 -10 16 -11 11 -2 -5 10 -3 12 11 8 11 -3 33 -8 51 -12 l31
-6 61 123 c36 72 114 201 191 312 l130 190 0 197 0 197 -77 26 c-242 81 -379
250 -399 494 -11 132 34 931 54 955 29 34 84 166 117 276 20 69 48 149 63 179
79 161 222 230 427 205 103 -12 174 -2 234 35 118 73 237 90 329 47 61 -28 58
-17 36 -193 -29 -230 -10 -348 86 -527 93 -173 99 -239 41 -426 -75 -241 -74
-319 8 -543 67 -181 75 -222 68 -330 -6 -92 -27 -208 -46 -259 -6 -16 -11 -46
-11 -68 0 -33 8 -48 52 -96 29 -32 59 -59 67 -61 9 -2 28 -20 43 -40 14 -20
40 -55 57 -78 l30 -40 -72 25 c-64 23 -88 26 -212 26 -165 -1 -225 -14 -360
-80 -220 -108 -406 -316 -555 -620 -66 -135 -136 -325 -171 -462 -18 -72 -27
-92 -39 -88 -45 14 -432 106 -435 103 -3 -4 -4 -8 -49 -373 -63 -513 -70 -574
-65 -579 15 -16 802 -307 809 -299 4 4 25 83 46 176 21 92 41 167 45 167 6 0
313 -58 1024 -195 66 -12 122 -21 124 -19 7 6 32 236 92 824 37 366 49 528 45
587 -5 90 -46 226 -91 305 -53 95 -190 187 -330 223 -76 19 -214 19 -290 0
-92 -24 -199 -81 -265 -142 -128 -118 -199 -265 -302 -628 l-63 -221 -37 9
-36 9 29 106 c80 300 197 563 331 744 82 111 216 231 311 278 96 47 210 74
285 67 245 -25 445 -323 585 -872 51 -199 113 -544 119 -658 0 -18 4 6 9 53 9
102 3 393 -11 551 -15 179 -73 423 -133 565 l-34 81 18 34 c31 57 77 209 89
297 8 51 11 136 7 215 -6 172 -27 242 -97 321 -80 91 -69 138 72 294 112 125
146 225 135 405 -10 153 -39 234 -134 377 -67 102 -76 142 -61 277 17 155 10
175 -97 280 l-83 81 5 79 c8 121 -20 205 -99 289 l-29 31 44 26 c65 39 142
127 163 189 57 166 -13 336 -159 384 -72 24 -163 16 -216 -19 -51 -34 -105
-113 -127 -188 -10 -33 -20 -59 -23 -59 -3 0 -44 30 -91 65 -165 126 -289 146
-534 86 -70 -17 -137 -31 -147 -31 -18 0 -19 23 -19 840 l0 840 -4140 0 -4140
0 0 -4535z m9557 1373 c55 -36 77 -85 81 -183 4 -94 -22 -179 -66 -217 -24
-20 -27 -30 -27 -81 0 -54 -3 -61 -33 -88 -45 -40 -109 -41 -152 -1 -51 46
-56 90 -44 414 5 151 9 178 23 182 9 2 52 4 97 3 69 -2 86 -6 121 -29z m-392
-1923 c86 -22 176 -68 235 -122 92 -82 160 -258 160 -412 0 -65 -102 -1251
-115 -1336 l-5 -30 -668 133 c-367 74 -669 136 -671 138 -2 2 42 176 99 386
189 705 238 852 330 994 79 120 204 211 341 248 72 19 220 20 294 1z"/>
<path d="M26593 15177 c-51 -9 -63 -14 -63 -29 0 -27 45 -68 75 -68 28 0 75
40 75 64 0 20 -11 46 -19 44 -3 0 -34 -6 -68 -11z"/>
<path d="M6803 16128 c-666 -664 -1169 -1177 -1007 -1028 32 30 402 397 822
815 713 710 954 955 938 955 -4 0 -343 -334 -753 -742z"/>
<path d="M20355 16296 c-538 -532 -1263 -1266 -1250 -1266 23 0 1805 1783
1794 1795 -3 2 -247 -236 -544 -529z"/>
<path d="M8993 15748 c-443 -442 -850 -852 -906 -913 l-101 -110 90 85 c49 47
392 386 762 755 657 654 982 985 967 985 -4 0 -370 -361 -812 -802z"/>
<path d="M22514 15886 c-654 -648 -1201 -1205 -1129 -1149 49 38 1681 1669
1737 1736 22 26 38 47 35 47 -3 0 -292 -285 -643 -634z"/>
<path d="M25773 16225 c-67 -29 -26 -55 87 -55 25 0 77 -6 117 -14 91 -17 111
-7 66 34 -18 16 -49 34 -70 39 -53 15 -162 13 -200 -4z"/>
<path d="M25113 16185 c-32 -14 -60 -50 -45 -59 5 -3 51 -3 103 -1 52 3 104 5
117 5 33 0 27 27 -10 50 -39 24 -117 26 -165 5z"/>
<path d="M25119 15980 c-38 -11 -79 -40 -79 -56 0 -10 9 -10 46 3 44 15 123
14 199 -2 l30 -6 -28 25 c-42 39 -110 54 -168 36z"/>
<path d="M25798 15954 c-28 -15 -56 -54 -40 -54 5 0 26 7 45 15 45 19 110 19
170 1 40 -12 47 -12 47 0 0 43 -162 71 -222 38z"/>
<path d="M25465 15850 c-81 -192 -155 -401 -155 -436 0 -45 23 -56 113 -52
l72 3 -74 12 c-41 6 -78 16 -83 21 -5 5 19 83 60 193 86 229 125 345 120 361
-3 7 -26 -39 -53 -102z"/>
<path d="M4323 15781 c-38 -10 -83 -37 -83 -51 0 -6 26 -10 58 -11 31 0 68 -2
82 -3 14 -2 60 -6 103 -11 73 -7 79 -6 75 11 -8 43 -157 85 -235 65z"/>
<path d="M5019 15751 c-41 -13 -69 -31 -69 -45 0 -10 34 -15 136 -20 75 -4
139 -4 143 -1 10 11 -47 53 -87 64 -42 12 -86 13 -123 2z"/>
<path d="M25082 15714 c-47 -33 -14 -114 46 -114 37 0 62 28 62 68 0 34 -29
62 -65 62 -11 0 -31 -7 -43 -16z"/>
<path d="M25727 15692 c-23 -25 -21 -68 3 -92 41 -41 110 -13 110 44 0 19 -8
40 -18 49 -25 22 -75 21 -95 -1z"/>
<path d="M8094 14029 l-1573 -1572 -80 29 c-45 16 -81 32 -81 36 0 11 1 11 87
-22 88 -34 83 -33 83 -21 0 5 -34 21 -75 36 -42 16 -78 32 -81 36 -8 13 -3 12
85 -21 45 -16 81 -26 81 -21 0 5 -33 22 -72 36 -40 15 -77 32 -83 38 -13 13
13 6 97 -26 37 -14 70 -22 73 -18 2 5 -30 21 -73 36 -74 27 -109 45 -85 45 7
0 46 -13 87 -29 42 -16 78 -26 81 -21 2 4 -34 22 -81 40 -47 17 -83 34 -80 37
3 3 39 -6 81 -21 41 -16 80 -26 87 -24 7 3 -28 20 -77 39 -50 18 -83 35 -75
37 8 1 44 -9 79 -23 65 -25 104 -33 85 -17 -5 5 -38 19 -74 32 -64 23 -95 40
-73 40 6 0 41 -11 77 -25 37 -14 72 -25 78 -25 24 0 -8 18 -79 45 -40 14 -73
30 -73 35 0 5 34 -5 76 -21 78 -30 99 -35 90 -20 -3 4 -39 20 -81 36 -41 15
-75 31 -75 36 0 4 30 -4 68 -18 88 -33 102 -37 102 -26 0 4 -36 21 -80 37 -44
15 -80 32 -80 37 0 5 36 -5 81 -21 89 -33 89 -33 89 -22 0 4 -36 21 -80 37
-44 16 -80 33 -80 37 0 11 -5 12 83 -22 81 -31 102 -36 93 -21 -3 4 -39 20
-81 36 -41 15 -75 31 -75 36 0 4 30 -4 68 -18 88 -33 102 -37 102 -26 0 4 -36
21 -80 37 -44 15 -80 32 -80 37 0 5 36 -5 81 -21 89 -33 89 -33 89 -22 0 4
-36 21 -80 37 -44 16 -80 33 -80 37 0 11 -5 12 83 -22 88 -34 87 -33 87 -21 0
5 -36 22 -80 37 -44 16 -80 32 -80 36 0 11 -5 12 84 -22 43 -17 81 -28 84 -25
8 7 2 11 -53 35 -46 19 -41 20 25 4 14 -3 -9 15 -50 40 -77 46 -128 58 -149
33 -22 -27 -229 -592 -220 -601 26 -28 2 -99 -58 -173 -19 -24 -51 -88 -74
-150 -23 -59 -44 -114 -49 -122 -9 -17 6 -64 -226 709 -97 322 -190 614 -207
650 -46 96 -149 196 -252 245 -44 21 -164 84 -266 141 l-187 104 -318 65
c-491 101 -808 166 -823 168 -10 1 -18 -15 -25 -50 l-11 -52 -180 -122 c-99
-67 -220 -152 -270 -188 -49 -37 -115 -80 -145 -97 -119 -64 -231 -199 -293
-354 -73 -184 -177 -679 -271 -1286 -37 -237 -41 -274 -29 -274 15 0 478 -82
484 -85 3 -3 9 -35 13 -72 14 -151 38 -319 47 -329 8 -10 32 -226 43 -389 27
-393 47 -1072 32 -1108 -4 -12 -8 -319 -7 -682 l1 -660 104 -800 c57 -440 111
-856 120 -925 9 -69 27 -206 41 -305 l25 -180 -26 -70 c-38 -103 -80 -285 -94
-405 -10 -93 -240 -3831 -240 -3909 0 -30 1 -31 50 -31 l50 0 0 -49 c0 -57 13
-49 -215 -136 -213 -82 -451 -186 -582 -256 l-113 -59 -112 -2 -113 -2 103 -3
104 -4 -81 -57 c-82 -58 -137 -127 -109 -137 7 -2 320 -6 696 -7 l682 -3 0 37
c0 20 4 39 9 42 4 3 368 -8 807 -25 440 -16 818 -28 842 -27 31 2 -149 48
-655 167 -384 90 -701 166 -705 168 -4 2 -3 15 2 28 7 18 5 32 -8 54 -20 36
-9 75 27 100 24 15 24 15 19 -10 -3 -18 0 -25 12 -26 15 -1 1673 -444 1793
-478 l48 -14 -31 39 c-17 21 -58 62 -92 92 l-61 53 989 5 989 5 -997 3 -997 2
-78 63 c-43 34 -97 76 -120 92 -24 17 -43 36 -43 43 0 6 -7 12 -15 12 -23 0
-165 104 -160 118 3 7 -4 12 -16 12 -26 0 -179 102 -172 114 3 4 0 12 -7 16
-24 15 -2 42 31 38 l32 -3 152 495 c83 272 286 932 449 1465 164 534 299 976
301 983 3 8 20 1 51 -23 25 -19 52 -35 60 -35 9 0 12 -4 9 -10 -4 -7 581 -10
1749 -10 1702 0 1756 1 1799 19 63 27 113 75 133 126 12 34 22 45 38 45 41 0
124 58 152 106 28 48 31 75 104 836 12 125 13 127 40 137 30 10 110 77 110 92
0 11 -153 12 -293 2 l-98 -6 42 -43 43 -44 -41 -441 c-34 -366 -44 -444 -59
-460 -25 -27 -47 -24 -73 12 -13 17 -46 42 -74 55 l-52 24 -400 1 -400 0 100
33 c177 57 293 126 423 251 160 152 273 368 306 583 l6 42 -197 0 c-679 0
-1368 85 -1751 216 l-103 35 -102 -62 c-395 -239 -797 -390 -1216 -459 -69
-11 -125 -19 -126 -17 0 1 5 292 11 647 7 355 13 698 13 763 1 111 2 119 22
124 46 12 105 50 126 81 30 46 38 153 24 352 -18 270 -88 818 -150 1176 l-19
111 79 244 c80 247 89 289 67 306 -18 14 -139 32 -131 19 4 -5 -1 -7 -10 -3
-10 3 -17 3 -17 -1 0 -5 25 -16 56 -26 31 -10 54 -20 51 -22 -2 -2 -23 3 -47
11 -23 8 -50 15 -59 14 -9 0 13 -11 49 -24 36 -13 60 -24 53 -24 -6 -1 -22 3
-35 8 -44 16 -80 22 -74 12 3 -5 28 -14 56 -21 27 -7 50 -16 50 -20 0 -5 -25
0 -57 11 -64 22 -66 22 -59 10 3 -4 26 -14 51 -21 25 -7 48 -16 50 -21 3 -4
-22 1 -55 12 -41 14 -60 26 -60 37 0 15 -18 183 -35 325 l-6 47 383 0 383 0
89 65 90 65 -480 2 -479 3 -27 245 c-15 135 -27 248 -27 251 -1 3 -27 9 -58
12 -180 19 -298 113 -393 312 -21 44 -94 222 -163 395 -182 460 -225 575 -218
577 11 4 922 113 946 113 17 0 22 -4 18 -18 -2 -10 5 -40 15 -67 17 -42 21
-47 28 -30 4 11 31 80 60 154 59 153 58 152 187 180 44 9 82 22 84 28 2 6 -35
26 -83 44 -48 18 -83 34 -77 36 5 2 45 -10 89 -27 89 -34 84 -33 84 -22 0 7
-54 32 -134 62 -16 6 -27 13 -24 15 3 3 24 -1 46 -9 54 -19 55 -1 2 20 -23 9
-39 19 -36 22 3 2 23 -3 46 -12 54 -21 52 -1 -2 24 -50 22 -34 27 17 6 19 -8
37 -11 40 -6 6 10 1 14 -48 30 -21 6 -36 14 -33 17 3 3 26 -2 52 -11 56 -19
54 -19 54 -7 0 5 -24 17 -52 27 -29 9 -47 19 -41 21 7 3 37 -5 67 -16 55 -20
79 -18 48 5 -15 11 -12 12 23 8 l40 -4 -29 13 c-16 8 -25 17 -19 20 5 3 15 2
23 -4 20 -12 40 -11 40 1 0 6 -6 10 -14 10 -8 0 -18 5 -22 11 -5 9 1 10 20 5
15 -4 26 -2 26 4 0 5 -7 10 -16 10 -8 0 -13 4 -9 10 3 5 13 6 22 3 12 -5 15
-2 10 10 -4 11 -1 17 8 17 8 0 15 6 15 13 0 6 545 557 1211 1222 1237 1237
1977 1985 1964 1985 -4 0 -716 -707 -1581 -1571z m-1667 -1556 c40 -15 73 -31
73 -36 0 -5 -8 -6 -17 -2 -10 4 -43 16 -73 27 -52 19 -84 38 -65 38 4 0 41
-12 82 -27z m-16 -30 c40 -15 68 -28 61 -31 -13 -4 -130 37 -138 49 -8 13 -2
12 77 -18z m-13 -29 c28 -10 52 -23 52 -27 0 -5 -6 -7 -12 -4 -7 2 -37 13 -65
23 -29 10 -53 23 -53 27 0 5 6 7 13 4 6 -2 36 -13 65 -23z m-8 -32 c24 -8 39
-17 32 -20 -17 -5 -112 29 -112 41 0 5 8 6 18 2 9 -4 37 -14 62 -23z m6 -43
c7 -12 5 -12 -49 7 -26 9 -47 20 -47 24 0 11 88 -18 96 -31z m-22 -30 c-5 -9
-84 21 -84 32 0 4 20 1 44 -8 25 -9 43 -20 40 -24z m-29 -21 c14 -12 -10 -10
-40 4 -14 6 -25 15 -25 19 0 9 47 -8 65 -23z m-1490 -2743 c17 -9 38 -27 45
-40 9 -17 22 -25 40 -25 53 0 110 -70 110 -135 0 -14 -9 -43 -20 -65 -26 -52
-24 -101 8 -180 21 -50 32 -66 50 -68 19 -3 27 8 57 70 39 81 42 110 18 177
-20 57 -12 109 23 150 48 58 138 50 168 -14 34 -72 9 -148 -62 -184 -42 -21
-72 -61 -126 -169 -35 -70 -36 -74 -36 -192 l0 -120 -27 6 c-79 19 -75 10 -72
148 l3 124 -46 95 c-39 79 -54 100 -88 122 -72 45 -91 145 -40 200 28 30 21
49 -25 76 -19 12 -32 25 -29 30 7 12 11 12 49 -6z m1232 -231 c-5 -5 -100 26
-112 37 -5 5 19 0 54 -12 34 -12 60 -23 58 -25z m-57 1 c19 -7 28 -13 20 -13
-8 0 -31 6 -50 13 -19 7 -28 13 -20 13 8 0 31 -6 50 -13z m0 -26 c10 -6 5 -7
-15 -3 -16 4 -34 11 -40 16 -11 12 31 1 55 -13z m-15 -19 c13 -6 15 -9 5 -9
-8 0 -22 4 -30 9 -18 12 -2 12 25 0z m-371 -369 c31 -29 34 -83 10 -154 l-16
-47 -47 0 c-27 0 -76 3 -110 6 l-61 7 -16 55 c-34 117 10 166 143 160 59 -3
76 -7 97 -27z m4199 -3098 c45 -5 47 -7 47 -37 0 -17 -18 -217 -39 -445 -36
-372 -42 -418 -63 -459 -27 -52 -85 -98 -137 -108 -30 -6 -33 -5 -27 12 3 11
0 43 -8 72 -12 48 -12 52 5 52 10 0 26 11 36 23 16 20 25 87 56 418 50 520 46
492 66 483 9 -3 37 -9 64 -11z m-5575 -4009 c25 -4 46 -13 50 -22 8 -22 -43
-62 -79 -62 -38 0 -79 40 -79 76 0 24 3 26 33 20 17 -3 52 -8 75 -12z"/>
<path d="M4881 9424 c-38 -49 -19 -130 37 -153 80 -33 136 77 76 148 -34 41
-83 43 -113 5z"/>
<path d="M5209 9411 c-67 -68 -12 -185 71 -151 57 24 78 104 39 154 -28 36
-72 35 -110 -3z"/>
<path d="M4314 15541 c-46 -28 -54 -46 -18 -37 74 18 123 18 174 1 56 -18 71
-15 49 11 -37 45 -150 59 -205 25z"/>
<path d="M5015 15536 c-17 -7 -37 -21 -45 -31 -14 -17 -13 -18 15 -12 86 19
121 19 173 -1 58 -22 73 -16 39 16 -45 42 -123 54 -182 28z"/>
<path d="M22308 14859 c-679 -672 -698 -690 -708 -664 -5 14 -10 30 -10 34 0
19 -78 96 -114 112 -108 49 -249 -8 -295 -119 l-13 -30 -36 21 c-56 34 -152
31 -214 -6 -69 -40 -103 -102 -103 -189 0 -65 -1 -68 -28 -79 -48 -20 -80 -73
-85 -140 -3 -43 0 -65 12 -84 15 -23 15 -27 -2 -62 -26 -52 -44 -110 -40 -129
2 -11 18 4 47 45 42 57 61 74 61 51 0 -5 14 -25 30 -44 88 -100 269 -87 624
44 77 28 160 54 186 57 100 12 239 -44 287 -116 33 -49 31 -130 -8 -251 -38
-119 -45 -222 -30 -405 25 -288 76 -439 170 -502 47 -32 77 -29 117 11 30 30
34 40 34 88 0 36 7 69 23 98 21 44 24 45 73 48 l51 3 6 52 c31 260 9 501 -64
720 l-29 88 21 22 c14 15 18 29 14 47 -7 29 -50 77 -75 85 -16 5 -16 9 -3 48
26 75 -2 161 -69 210 -17 12 -49 22 -83 25 -59 5 -62 7 -40 36 24 32 19 115
-10 158 -38 56 -100 81 -188 76 -41 -2 -89 -12 -112 -23 -22 -10 -44 -21 -50
-23 -5 -2 276 283 625 634 634 637 738 744 730 744 -3 0 -319 -311 -702 -691z"/>
<path d="M4751 15515 c-2 -19 39 -158 100 -343 34 -100 59 -189 56 -196 -4 -9
-34 -18 -79 -24 l-73 -9 80 -2 c86 -1 105 7 105 45 0 45 -186 566 -189 529z"/>
<path d="M4440 15320 c-39 -39 -12 -100 44 -100 39 0 66 26 66 62 0 53 -71 77
-110 38z"/>
<path d="M5066 15324 c-23 -22 -21 -81 3 -94 51 -27 104 -1 104 50 0 38 -23
60 -64 60 -15 0 -35 -7 -43 -16z"/>
<path d="M25690 15274 c-24 -73 -113 -143 -182 -144 -31 0 -37 -14 -12 -24 54
-21 159 22 193 78 26 41 39 110 23 120 -6 3 -16 -10 -22 -30z"/>
<path d="M25580 14864 c0 -28 -6 -72 -14 -97 -17 -58 -4 -62 18 -7 18 45 21
117 6 140 -7 11 -10 1 -10 -36z"/>
<path d="M4530 14861 c0 -76 67 -142 153 -149 63 -5 86 12 29 23 -68 12 -118
50 -147 110 -15 30 -29 55 -31 55 -2 0 -4 -17 -4 -39z"/>
<path d="M25490 14775 c1 -69 3 -86 11 -72 14 25 14 136 0 150 -8 8 -11 -13
-11 -78z"/>
<path d="M25365 14796 c4 -36 51 -123 61 -113 3 2 -11 38 -31 78 -32 67 -35
70 -30 35z"/>
<path d="M25413 14802 c9 -46 39 -109 44 -95 3 7 -3 35 -12 63 -19 58 -42 80
-32 32z"/>
<path d="M8480 14005 c-8 -2 -49 -9 -90 -15 -163 -26 -355 -102 -433 -171 -79
-69 -180 -246 -165 -289 1 -5 24 19 50 54 l47 65 36 -35 c20 -19 57 -48 82
-65 44 -31 48 -31 127 -26 99 7 199 33 376 98 204 76 297 75 414 -2 92 -61
105 -134 50 -294 -24 -71 -27 -97 -30 -230 -3 -158 15 -340 42 -434 l16 -55
-36 -33 c-20 -19 -36 -41 -36 -49 0 -8 -10 -14 -23 -14 -24 0 -67 -37 -67 -58
0 -7 -14 -12 -32 -12 -18 0 -48 -9 -66 -20 l-33 -20 -21 20 c-29 27 -64 25
-93 -4 -22 -22 -28 -23 -61 -14 -42 11 -117 -11 -133 -40 -7 -12 -20 -16 -50
-13 -32 2 -46 -3 -66 -23 -14 -14 -25 -34 -25 -46 0 -12 -7 -20 -18 -20 -10 0
-28 -7 -40 -16 -18 -13 -29 -13 -57 -4 -43 14 -100 -1 -116 -31 -10 -19 -11
-19 -44 10 -55 48 -108 51 -168 9 -25 -18 -28 -18 -44 -3 -43 44 -115 40 -139
-6 -8 -16 -13 -32 -12 -36 1 -4 -3 -17 -9 -29 -9 -16 -9 -30 2 -61 12 -35 12
-53 -2 -136 -17 -95 -17 -97 7 -204 16 -68 24 -132 22 -172 -3 -78 3 -98 29
-106 14 -5 19 -15 19 -45 0 -47 11 -56 36 -29 10 12 30 27 44 34 40 21 173 45
245 45 73 0 86 -12 68 -60 l-10 -28 96 40 97 40 69 217 c76 236 120 340 157
365 21 15 23 15 26 0 8 -36 -47 -303 -104 -501 -6 -21 -3 -21 82 13 176 69
476 156 490 141 3 -2 -7 -19 -22 -36 -31 -37 -162 -102 -425 -211 l-177 -73
-12 -41 c-6 -23 -13 -48 -16 -58 -4 -13 6 -19 48 -27 58 -13 88 -34 88 -63 0
-15 5 -17 28 -12 38 9 63 23 93 50 17 16 47 28 90 35 85 15 113 31 140 79 15
26 33 43 55 50 35 12 44 26 44 71 0 19 9 37 25 51 19 17 25 31 25 65 0 39 3
44 33 56 44 19 60 41 55 78 -4 24 1 37 25 60 23 24 28 36 24 62 -3 24 2 39 19
60 23 28 28 47 24 94 0 12 6 33 15 47 11 16 16 41 14 69 -2 32 2 50 15 63 16
15 17 28 12 81 -5 47 -3 70 9 92 11 23 12 36 4 61 -9 26 -8 34 6 50 12 14 20
45 25 97 4 43 12 88 19 101 14 26 49 42 91 42 26 0 30 5 37 38 15 70 8 400
-10 502 -34 184 -110 365 -202 482 -126 160 -365 276 -585 283 -58 2 -112 2
-120 0z m-40 -1766 c0 -82 -52 -146 -137 -168 -42 -11 -93 -6 -93 9 0 4 17 11
37 15 78 14 144 73 163 145 14 52 30 51 30 -1z"/>
<path d="M8493 13291 c-70 -33 -57 -51 36 -51 44 0 114 -5 155 -11 81 -11 99
-8 89 17 -20 53 -201 82 -280 45z"/>
<path d="M21413 13287 c-38 -14 -68 -41 -60 -55 4 -5 59 -12 124 -16 65 -3
142 -9 171 -12 52 -7 54 -6 50 17 -5 41 -78 72 -173 76 -47 1 -93 -2 -112 -10z"/>
<path d="M7832 13203 c-31 -15 -59 -49 -49 -59 2 -3 57 -1 122 3 130 9 148 19
93 53 -41 25 -119 26 -166 3z"/>
<path d="M20713 13190 c-29 -13 -44 -27 -49 -45 -3 -14 -4 -28 -1 -32 3 -3 43
0 88 6 45 6 102 11 126 11 40 0 44 2 41 23 -7 52 -125 74 -205 37z"/>
<path d="M20145 12698 c-566 -571 -877 -888 -815 -833 79 69 1210 1198 1210
1207 0 5 -3 8 -8 8 -4 0 -178 -172 -387 -382z"/>
<path d="M8558 13000 c-41 -7 -88 -35 -88 -51 0 -7 9 -9 23 -4 52 16 143 17
181 1 56 -23 74 -22 50 5 -37 41 -100 60 -166 49z"/>
<path d="M21420 12962 c-19 -11 -37 -27 -38 -37 -4 -16 1 -17 35 -9 64 15 145
10 191 -10 65 -30 71 2 8 48 -39 30 -149 34 -196 8z"/>
<path d="M7836 12955 c-42 -15 -84 -50 -73 -61 3 -4 25 1 49 11 48 19 129 22
172 5 16 -6 31 -8 34 -5 10 10 -32 45 -67 55 -47 13 -68 12 -115 -5z"/>
<path d="M20695 12925 c-37 -20 -69 -55 -58 -66 5 -5 33 1 63 12 55 21 85 21
189 2 40 -7 39 10 -2 41 -37 27 -149 34 -192 11z"/>
<path d="M8188 12810 c-57 -156 -138 -404 -138 -424 0 -35 29 -46 113 -45 l82
1 -77 12 c-43 7 -81 15 -84 19 -4 4 20 91 54 194 80 246 104 331 100 351 -2 9
-24 -39 -50 -108z"/>
<path d="M21133 12909 c-25 -31 -193 -529 -193 -573 0 -45 23 -56 116 -56 46
0 84 4 84 9 0 9 -71 21 -122 21 -16 0 -31 6 -34 14 -3 8 22 99 56 202 97 302
127 425 93 383z"/>
<path d="M7820 12740 c-58 -58 20 -142 88 -94 15 10 22 25 22 49 0 58 -69 86
-110 45z"/>
<path d="M8427 12742 c-25 -27 -22 -78 5 -96 46 -33 108 -4 108 49 0 55 -77
87 -113 47z"/>
<path d="M7294 12389 c-436 -434 -1073 -1083 -1057 -1078 17 6 1132 1108 1287
1273 241 255 118 151 -230 -195z"/>
<path d="M20699 12712 c-50 -41 -17 -122 51 -122 69 0 97 77 44 119 -33 26
-65 27 -95 3z"/>
<path d="M21350 12723 c-41 -15 -55 -87 -22 -116 19 -17 78 -23 98 -9 22 14
33 49 25 78 -11 41 -57 63 -101 47z"/>
<path d="M22307 12543 c-4 -3 -7 -17 -7 -31 l0 -24 18 22 c51 63 107 -80 68
-175 -17 -39 -48 -59 -82 -51 -31 8 -31 -11 0 -25 18 -9 31 -8 51 2 61 30 91
109 74 191 -14 65 -42 98 -83 98 -18 0 -36 -3 -39 -7z"/>
<path d="M21351 12248 c-7 -24 -24 -58 -38 -77 -27 -35 -112 -81 -151 -81 -47
0 -15 -25 36 -28 63 -4 119 23 159 74 22 30 28 47 28 92 0 68 -17 78 -34 20z"/>
<path d="M22447 12223 c-10 -12 -44 -35 -77 -50 -33 -16 -60 -33 -60 -39 0 -6
44 -29 97 -52 l97 -42 31 28 c16 16 58 50 93 76 34 26 62 49 62 50 0 4 -160
43 -200 49 -18 2 -31 -3 -43 -20z"/>
<path d="M20085 11788 c-498 -501 -587 -596 -320 -341 298 285 758 749 754
762 -2 6 -198 -184 -434 -421z"/>
<path d="M21576 11538 c-134 -81 -313 -140 -464 -154 l-72 -7 0 -70 0 -70 89
7 c177 13 313 69 417 171 58 57 119 146 112 163 -1 4 -39 -14 -82 -40z"/>
<path d="M8260 11425 c-26 -32 13 -81 48 -59 23 15 26 38 7 58 -20 20 -39 20
-55 1z"/>
<path d="M8146 11298 c-38 -15 -72 -30 -74 -33 -3 -3 25 -5 62 -5 63 0 67 1
77 27 5 14 8 29 7 33 -2 4 -34 -6 -72 -22z"/>
<path d="M24465 11168 c-7 -35 -85 -690 -85 -721 0 -43 31 -97 55 -97 17 0 29
14 53 68 45 99 46 106 23 173 -18 51 -20 67 -10 101 25 93 119 129 180 69 25
-26 29 -37 29 -86 0 -54 -3 -60 -39 -94 -21 -20 -52 -46 -69 -58 -17 -13 -49
-61 -76 -112 -38 -74 -46 -98 -46 -144 0 -31 -4 -58 -9 -62 -6 -3 -28 -3 -50
1 l-41 7 0 68 c0 71 -19 99 -21 32 -2 -53 -13 -98 -25 -97 -5 1 -54 5 -109 9
l-100 7 7 -124 c3 -67 7 -153 7 -190 l1 -68 -285 0 -285 0 30 -60 30 -60 259
0 259 0 6 -52 c3 -29 13 -186 22 -348 17 -294 17 -295 -5 -440 -39 -257 -41
-226 28 -384 34 -76 63 -142 64 -147 1 -5 -41 -33 -93 -62 l-95 -52 -8 -60
c-4 -33 -35 -244 -68 -470 -33 -225 -73 -500 -89 -610 -16 -110 -54 -371 -85
-580 -31 -209 -80 -546 -110 -750 -30 -203 -61 -419 -70 -478 -9 -60 -14 -114
-12 -121 3 -7 49 -16 122 -23 65 -7 119 -14 120 -15 2 -2 13 -106 25 -233 51
-552 186 -1521 380 -2719 39 -236 70 -434 70 -439 0 -6 37 -7 94 -2 52 4 96 3
99 -2 3 -4 6 -75 8 -157 l4 -148 -177 -68 c-97 -38 -235 -95 -305 -127 l-128
-58 -6845 3 c-4127 2 -6867 -1 -6900 -6 -34 -6 2605 -10 6820 -11 l6875 -1
-90 -48 c-97 -52 -209 -121 -204 -126 2 -2 431 11 953 28 l950 31 0 55 1 55
692 3 692 2 -19 -44 c-10 -25 -23 -61 -29 -81 -9 -33 -8 -35 7 -23 20 16 1264
1058 1276 1069 4 4 -81 121 -191 261 -109 139 -202 258 -206 264 -4 8 20 30
63 59 l69 48 -28 36 c-63 81 -1678 2207 -1684 2218 -5 7 -41 479 -81 1050
l-74 1037 50 171 50 171 224 233 c349 363 416 482 518 924 37 160 93 528 82
538 -1 0 -271 15 -601 33 l-600 31 3 35 c1 19 7 58 12 85 l11 50 617 184 c339
101 623 188 631 191 11 6 14 25 12 75 -2 53 0 65 11 59 10 -6 11 -5 1 7 -6 8
-13 47 -15 87 -4 86 -5 85 110 46 177 -59 346 -169 488 -315 111 -115 176
-217 182 -286 4 -48 2 -55 -27 -84 -28 -27 -37 -31 -68 -26 -128 21 -428 255
-579 453 -31 41 -59 74 -61 74 -17 0 103 -147 202 -245 226 -228 441 -342 514
-274 67 62 49 153 -58 298 -153 206 -375 356 -661 448 -8 3 62 24 155 48 391
100 744 254 811 354 32 50 37 125 10 166 -35 54 -143 72 -221 36 -22 -10 -210
-129 -418 -264 -208 -136 -380 -247 -383 -247 -2 0 -4 41 -4 90 0 50 -3 90 -7
91 -5 0 -321 33 -703 72 l-695 72 -3 87 -3 87 -32 6 c-209 45 -487 190 -1024
532 -52 33 -53 33 -58 11z m3479 -542 c95 -39 100 -146 12 -224 -100 -88 -497
-247 -786 -315 -180 -43 -168 -42 -176 -12 -3 14 -5 28 -3 29 10 10 765 488
792 503 68 35 111 40 161 19z m-1774 -7911 c532 -602 644 -724 658 -716 9 5
55 37 102 70 67 48 87 58 95 48 6 -7 60 -71 120 -142 61 -70 109 -131 108
-135 -1 -4 -36 -63 -77 -131 -93 -155 -213 -375 -251 -462 l-30 -67 -695 3
-695 2 -2 320 c-2 241 1 321 10 327 7 4 34 8 60 8 l49 0 -6 38 c-3 20 -8 84
-11 142 -6 113 -31 544 -40 675 -3 44 -10 150 -15 235 -6 85 -12 182 -15 215
-12 163 -17 295 -12 295 3 0 294 -326 647 -725z m1545 -490 c14 -13 25 -29 25
-35 0 -26 -31 -68 -55 -74 -72 -18 -116 68 -59 113 35 27 59 27 89 -4z m-2516
-721 c56 -47 30 -124 -42 -124 -89 0 -115 107 -34 140 34 14 43 12 76 -16z"/>
<path d="M24558 10731 c-83 -74 6 -209 91 -138 22 19 43 76 35 100 -10 34 -45
67 -71 67 -12 0 -37 -13 -55 -29z"/>
<path d="M23334 9670 c3 -30 21 -197 40 -370 45 -401 70 -669 96 -1045 11
-165 24 -338 29 -385 8 -85 8 -84 10 55 3 327 -54 997 -129 1530 -31 214 -54
326 -46 215z"/>
<path d="M10401 9558 c-1 -15 10 -121 24 -235 55 -460 90 -840 125 -1362 11
-162 22 -296 25 -299 17 -17 -2 426 -35 833 -32 385 -104 976 -129 1061 l-9
29 -1 -27z"/>
<path d="M20916 8983 c-34 -152 -64 -439 -47 -456 10 -10 15 17 31 158 11 93
37 289 45 338 2 15 0 27 -4 27 -5 0 -16 -30 -25 -67z"/>
<path d="M7988 8860 c-36 -140 -70 -461 -50 -474 6 -3 12 17 16 52 4 31 18
144 32 250 28 211 29 276 2 172z"/>
<path d="M20760 8821 c0 -52 -206 -1449 -305 -2065 -31 -192 -54 -354 -52
-360 5 -15 20 54 72 340 130 714 322 2094 291 2094 -3 0 -6 -4 -6 -9z"/>
<path d="M7830 8696 c0 -49 -221 -1538 -315 -2126 -52 -322 -56 -408 -7 -159
125 643 362 2289 328 2289 -3 0 -6 -2 -6 -4z"/>
<path d="M18691 7963 c-143 -248 -780 -1408 -1032 -1880 l-134 -250 -35 23
c-19 12 -280 180 -580 373 l-545 350 -22 -42 c-26 -49 -30 -45 -7 8 10 26 12
41 5 48 -7 7 -12 4 -17 -9 -36 -102 -163 -408 -437 -1049 -330 -772 -529
-1243 -541 -1281 -5 -18 5 -28 64 -68 l71 -47 -33 -62 c-39 -72 -15 -69 -248
-33 -306 48 -429 59 -625 60 -117 0 -205 -5 -230 -12 -42 -12 -84 -37 -75 -45
12 -10 1627 -956 1641 -962 13 -5 28 13 64 77 26 46 99 170 162 275 l114 193
41 -27 c38 -26 41 -26 53 -9 7 10 93 164 190 342 98 179 179 323 181 321 2 -2
-4 -88 -14 -191 -10 -103 -14 -190 -10 -192 4 -3 8 -15 7 -27 -1 -21 -2 -20
-10 3 -6 17 -7 -3 -4 -59 6 -118 -5 -261 -21 -261 -7 0 -13 -18 -16 -50 -1
-28 0 -50 5 -50 4 0 8 21 8 48 1 26 4 36 6 22 3 -21 -96 -1260 -112 -1407 l-6
-52 98 -3 98 -3 -3 -64 c-1 -36 -7 -68 -14 -72 -6 -4 -86 -28 -177 -54 -481
-138 -875 -301 -956 -397 -28 -34 -32 -58 -10 -58 9 0 484 -43 1057 -96 572
-52 1046 -93 1053 -90 7 2 15 39 19 98 8 109 11 146 40 458 20 229 22 235 43
238 14 2 25 12 28 25 2 12 39 279 80 592 144 1079 215 1573 249 1742 41 201
124 568 137 600 l9 23 235 0 235 0 -24 -37 c-79 -120 -42 -269 84 -338 l55
-30 1730 0 c1481 0 1737 2 1780 14 59 18 139 91 149 138 6 26 14 33 50 42 23
5 60 24 83 40 76 55 77 59 133 631 28 283 52 520 54 526 2 6 17 14 33 17 34 7
95 46 101 66 4 10 -1 12 -19 8 -13 -4 -91 -7 -173 -7 -144 0 -149 -1 -133 -18
10 -10 17 -31 17 -47 0 -40 -90 -1007 -95 -1022 -2 -6 -16 -20 -30 -29 -26
-17 -27 -17 -56 19 -16 19 -50 46 -76 59 -44 21 -63 23 -228 27 -169 3 -178 4
-150 18 164 85 299 350 379 748 15 72 29 155 33 186 l6 56 -299 6 c-782 18
-1355 91 -1718 221 l-93 33 -104 -64 c-426 -262 -877 -419 -1399 -485 -161
-20 -706 -17 -890 5 -178 22 -401 57 -416 66 -7 4 24 68 88 181 332 583 1092
1984 1086 2002 -2 5 -18 -17 -37 -49z m4102 -1986 c39 -9 47 -15 47 -33 0 -65
-92 -994 -101 -1024 -22 -70 -77 -120 -156 -144 -21 -7 -23 -4 -23 33 0 22 -5
52 -11 68 -7 20 -7 29 1 31 6 2 22 14 36 26 24 21 25 32 74 531 27 281 50 516
50 524 0 9 6 11 18 6 9 -5 38 -13 65 -18z"/>
<path d="M13115 7576 c-170 -54 -334 -245 -506 -588 -23 -46 -42 -84 -44 -86
-1 -1 -32 18 -69 43 -130 87 -148 79 -205 -82 -116 -324 -152 -591 -111 -813
5 -25 7 -46 6 -47 -1 -2 -34 22 -72 53 -126 102 -283 186 -439 237 -111 36
-150 43 -139 26 8 -14 251 -377 640 -954 122 -182 242 -371 267 -421 52 -103
117 -300 151 -459 14 -60 25 -100 25 -88 1 34 -44 237 -72 324 -24 75 -24 77
-6 111 10 20 27 69 39 109 25 90 27 269 5 374 -20 92 -20 90 20 59 l35 -26 -1
-317 c-1 -174 -4 -397 -8 -496 -7 -210 23 -886 45 -997 3 -16 3 -28 1 -28 -3
0 -36 44 -73 98 -37 53 -84 117 -104 142 -25 30 -39 60 -44 90 -17 110 -145
300 -307 456 -330 316 -438 360 -904 371 -137 3 -248 3 -245 0 3 -2 80 -43
172 -91 419 -216 823 -469 1166 -730 62 -47 119 -86 126 -86 11 0 126 -146
194 -246 17 -25 25 -71 47 -275 14 -134 28 -266 31 -294 3 -36 35 -275 44
-332 1 -7 110 -2 110 5 0 5 -7 31 -15 60 -20 66 -69 299 -90 432 l-18 104 44
39 c54 48 136 90 213 110 54 14 61 14 119 -5 102 -33 206 -81 410 -192 280
-151 301 -160 562 -237 176 -52 295 -101 352 -145 19 -14 36 -24 39 -22 8 9
-54 86 -100 124 -171 144 -742 419 -1026 495 -202 54 -399 18 -558 -104 -29
-22 -54 -38 -56 -36 -5 5 -33 287 -46 453 -16 208 -14 271 13 317 19 35 30 42
87 59 256 77 588 45 1031 -99 69 -23 129 -41 132 -41 13 0 7 26 -23 88 -34 72
-108 154 -245 272 -163 140 -263 197 -395 226 -63 15 -86 15 -145 5 -194 -32
-364 -195 -410 -394 -8 -37 -25 -83 -38 -104 l-22 -38 -3 40 c-2 22 -2 110 0
197 2 86 -1 154 -6 151 -4 -3 -6 210 -5 474 l4 480 36 39 c53 60 97 127 137
212 24 50 65 110 117 170 230 267 365 533 432 851 23 110 27 150 27 311 0 139
-4 208 -18 275 -23 117 -80 293 -109 336 -42 63 -115 83 -202 55z"/>
<path d="M14225 5774 c-154 -28 -367 -110 -703 -270 -200 -95 -316 -176 -458
-318 -147 -146 -191 -222 -201 -346 -5 -58 -15 -94 -48 -165 -43 -91 -105
-257 -105 -278 0 -7 18 33 39 88 21 55 60 146 86 203 48 101 50 104 119 149
39 26 150 87 246 138 96 50 213 116 260 146 47 30 130 81 185 113 55 33 186
123 290 201 105 78 211 156 237 173 82 56 236 130 309 149 56 14 66 19 47 24
-41 12 -221 8 -303 -7z"/>
<path d="M16665 3650 c-4 -56 -5 -103 -2 -106 2 -3 8 41 12 96 3 56 5 104 2
106 -3 3 -8 -40 -12 -96z"/>
<path d="M11610 3509 c-140 -17 -243 -49 -160 -49 78 0 273 -63 511 -166 289
-124 405 -162 555 -183 63 -9 72 -13 107 -52 21 -24 52 -64 69 -91 17 -26 34
-46 36 -43 7 6 -59 105 -127 190 -180 225 -334 322 -591 375 -115 24 -296 32
-400 19z"/>
<path d="M16643 3370 c0 -30 2 -43 4 -27 2 15 2 39 0 55 -2 15 -4 2 -4 -28z"/>
<path d="M16633 3260 c0 -25 2 -35 4 -22 2 12 2 32 0 45 -2 12 -4 2 -4 -23z"/>
<path d="M16620 3143 c-3 -29 -1 -48 3 -44 5 5 7 28 5 52 l-3 44 -5 -52z"/>
<path d="M16613 3045 c0 -22 2 -30 4 -17 2 12 2 30 0 40 -3 9 -5 -1 -4 -23z"/>
<path d="M16603 2935 c0 -22 2 -30 4 -17 2 12 2 30 0 40 -3 9 -5 -1 -4 -23z"/>
<path d="M16592 2820 c0 -19 2 -27 5 -17 2 9 2 25 0 35 -3 9 -5 1 -5 -18z"/>
<path d="M16582 2710 c0 -14 2 -19 5 -12 2 6 2 18 0 25 -3 6 -5 1 -5 -13z"/>
<path d="M16572 2600 c0 -14 2 -19 5 -12 2 6 2 18 0 25 -3 6 -5 1 -5 -13z"/>
<path d="M16561 2484 c0 -11 3 -14 6 -6 3 7 2 16 -1 19 -3 4 -6 -2 -5 -13z"/>
<path d="M20000 2259 c38 -15 304 -67 420 -81 136 -17 544 -17 680 0 122 15
385 66 420 82 29 12 20 11 -150 -21 -425 -80 -885 -74 -1308 16 -83 17 -98 18
-62 4z"/>
<path d="M11910 2250 c124 -10 1736 -10 1860 0 52 3 -366 7 -930 7 -564 0
-982 -4 -930 -7z"/>
<path d="M8475 2224 c-227 -48 -351 -59 -660 -59 -301 0 -362 5 -614 51 -73
14 -136 23 -138 20 -7 -7 172 -46 312 -68 187 -29 577 -36 775 -14 147 17 348
55 430 80 65 21 21 17 -105 -10z"/>
<path d="M27378 1173 c106 -2 277 -2 380 0 103 1 16 2 -193 2 -209 0 -293 -1
-187 -2z"/>
<path d="M5440 923 c0 -5 7 -17 15 -27 15 -20 20 -10 9 18 -6 16 -24 22 -24 9z"/>
</g>
</svg>
